Genre:Action | Adventure | Crime | Fantasy 
Language:English
IMDb:http://www.imdb.com/title/tt1438437/
Source:DVD

General
Complete name :The Phantom 2009 DVDRip.H264.FEEL-FREE
Format : MPEG-4
Format profile : Base Media
Codec ID : isom
File size : 828 MiB
Duration : 1h 24mn
Overall bit rate : 1 362 Kbps
Video #1
ID : 1
Format : MPEG-4 Visual
Format profile : Simple@L1
Format settings, BVOP : No
Format settings, QPel : No
Format settings, GMC : No warppoints
Format settings, Matrix : Default (H.263)
Codec ID : 20
Duration : 1h 24mn
Bit rate mode : Variable
Bit rate : 1 192 Kbps
Width : 688 pixels
Height : 288 pixels
Display aspect ratio : 2.35:1
Frame rate mode : Constant
Frame rate : 25.000 fps
Resolution : 24 bits
Colorimetry : 4:2:0
Scan type : Progressive
Bits/(Pixel*Frame) : 0.241
Stream size : 724 MiB (88%)
Writing library : Lavc51.40.4

Audio #2
ID : 2
Format : AAC
Format/Info : Advanced Audio Codec
Format version : Version 4
Format profile : LC
Format settings, SBR : No
Codec ID : 40
Duration : 1h 24mn
Bit rate mode : Variable
Bit rate : 165 Kbps
Channel(s) : 2 channels
Channel positions : L R
Sampling rate : 48.0 KHz
Resolution : 16 bits
Stream size : 100 MiB (12%)




 
http://thepiratebay.org/user/hiest




Screenshots:
 
http://www.starshare.ro/bitbucket/vlcsnap-2010-08-23-10h05m03s200.jpg
 
http://www.starshare.ro/bitbucket/vlcsnap-2010-08-23-10h05m24s147.jpg
 
http://www.starshare.ro/bitbucket/vlcsnap-2010-08-23-10h05m10s10.jpg